<svg width="1300" height="1150" viewBox="0 0 1300 1150" fill="none" xmlns="http://www.w3.org/2000/svg">
<defs>
<radialGradient id="centerGlow" cx="0" cy="0" r="1" gradientUnits="userSpaceOnUse" gradientTransform="translate(650 540) rotate(90) scale(200 200)">
<stop offset="0%" stop-color="#2A1550"/>
<stop offset="60%" stop-color="#150A2E"/>
<stop offset="100%" stop-color="#0B0714" stop-opacity="0"/>
</radialGradient>
<filter id="nodeShadow" x="-60%" y="-60%" width="220%" height="220%">
<feDropShadow dx="0" dy="3" stdDeviation="6" flood-color="#0B0714" flood-opacity="0.4"/>
</filter>
<marker id="arrow0" markerWidth="9" markerHeight="9" refX="6.5" refY="4.5" orient="auto"><path d="M0,0 L9,4.5 L0,9 Z" fill="#FF5A1F"/></marker>
<marker id="arrow1" markerWidth="9" markerHeight="9" refX="6.5" refY="4.5" orient="auto"><path d="M0,0 L9,4.5 L0,9 Z" fill="#F0406B"/></marker>
<marker id="arrow2" markerWidth="9" markerHeight="9" refX="6.5" refY="4.5" orient="auto"><path d="M0,0 L9,4.5 L0,9 Z" fill="#D0127E"/></marker>
<marker id="arrow3" markerWidth="9" markerHeight="9" refX="6.5" refY="4.5" orient="auto"><path d="M0,0 L9,4.5 L0,9 Z" fill="#9A2BA8"/></marker>
<marker id="arrow4" markerWidth="9" markerHeight="9" refX="6.5" refY="4.5" orient="auto"><path d="M0,0 L9,4.5 L0,9 Z" fill="#6B3FB0"/></marker>
<marker id="arrow5" markerWidth="9" markerHeight="9" refX="6.5" refY="4.5" orient="auto"><path d="M0,0 L9,4.5 L0,9 Z" fill="#4550AC"/></marker>
<marker id="arrow6" markerWidth="9" markerHeight="9" refX="6.5" refY="4.5" orient="auto"><path d="M0,0 L9,4.5 L0,9 Z" fill="#2F72C4"/></marker>
<marker id="arrow7" markerWidth="9" markerHeight="9" refX="6.5" refY="4.5" orient="auto"><path d="M0,0 L9,4.5 L0,9 Z" fill="#1D4E93"/></marker>
<style>
.title{font:600 21px Arial, Helvetica, sans-serif; fill:#F4F2F8;}
.sub{font:400 13.5px Arial, Helvetica, sans-serif; fill:#8B81A8;}
.center-title{font:600 19px Arial, Helvetica, sans-serif; fill:#F4F2F8;}
.center-sub{font:400 13px Arial, Helvetica, sans-serif; fill:#8B81A8;}
.num{font:700 14px Arial, Helvetica, sans-serif; fill:#FFFFFF;}
</style>
</defs>
<rect width="1300" height="1150" rx="28" fill="#0B0714"/>
<circle cx="650" cy="540" r="380" fill="url(#centerGlow)"/>
<circle cx="650" cy="540" r="300" fill="none" stroke="#241A3D" stroke-width="1.5"/>
<path d="M708.0 245.7 A300 300 0 0 1 817.1 290.9" stroke="#FF5A1F" stroke-width="3" fill="none" opacity="0.75" marker-end="url(#arrow0)"/>
<path d="M899.1 372.9 A300 300 0 0 1 944.3 482.0" stroke="#F0406B" stroke-width="3" fill="none" opacity="0.75" marker-end="url(#arrow1)"/>
<path d="M944.3 598.0 A300 300 0 0 1 899.1 707.1" stroke="#D0127E" stroke-width="3" fill="none" opacity="0.75" marker-end="url(#arrow2)"/>
<path d="M817.1 789.1 A300 300 0 0 1 708.0 834.3" stroke="#9A2BA8" stroke-width="3" fill="none" opacity="0.75" marker-end="url(#arrow3)"/>
<path d="M592.0 834.3 A300 300 0 0 1 482.9 789.1" stroke="#6B3FB0" stroke-width="3" fill="none" opacity="0.75" marker-end="url(#arrow4)"/>
<path d="M400.9 707.1 A300 300 0 0 1 355.7 598.0" stroke="#4550AC" stroke-width="3" fill="none" opacity="0.75" marker-end="url(#arrow5)"/>
<path d="M355.7 482.0 A300 300 0 0 1 400.9 372.9" stroke="#2F72C4" stroke-width="3" fill="none" opacity="0.75" marker-end="url(#arrow6)"/>
<path d="M482.9 290.9 A300 300 0 0 1 592.0 245.7" stroke="#1D4E93" stroke-width="3" fill="none" opacity="0.75" marker-end="url(#arrow7)"/>
<text x="650" y="538" text-anchor="middle" class="center-title">Ciclo contínuo</text>
<text x="650" y="562" text-anchor="middle" class="center-title">de construção</text>
<g filter="url(#nodeShadow)">
<circle cx="650.0" cy="240.0" r="42" fill="#FF5A1F"/>
<text x="650.0" y="245.0" text-anchor="middle" class="num">01</text>
</g>
<text x="650.0" y="126.0" text-anchor="middle" class="title">Entender</text>
<text x="650.0" y="149.0" text-anchor="middle" class="title">o contexto</text>
<text x="650.0" y="169.0" text-anchor="middle" class="sub">Negócio, usuário, cenário</text>
<g filter="url(#nodeShadow)">
<circle cx="862.1" cy="327.9" r="42" fill="#F0406B"/>
<text x="862.1" y="332.9" text-anchor="middle" class="num">02</text>
</g>
<text x="944.5" y="245.5" text-anchor="start" class="title">Explorar</text>
<text x="944.5" y="268.5" text-anchor="start" class="title">o problema</text>
<text x="944.5" y="288.5" text-anchor="start" class="sub">Dores, riscos, oportunidades</text>
<g filter="url(#nodeShadow)">
<circle cx="950.0" cy="540.0" r="42" fill="#D0127E"/>
<text x="950.0" y="545.0" text-anchor="middle" class="num">03</text>
</g>
<text x="1064.0" y="534.0" text-anchor="start" class="title">Definir</text>
<text x="1064.0" y="557.0" text-anchor="start" class="title">prioridades</text>
<text x="1064.0" y="577.0" text-anchor="start" class="sub">Valor, esforço, impacto</text>
<g filter="url(#nodeShadow)">
<circle cx="862.1" cy="752.1" r="42" fill="#9A2BA8"/>
<text x="862.1" y="757.1" text-anchor="middle" class="num">04</text>
</g>
<text x="944.5" y="822.5" text-anchor="start" class="title">Desenhar</text>
<text x="944.5" y="845.5" text-anchor="start" class="title">a solução</text>
<text x="944.5" y="865.5" text-anchor="start" class="sub">Escopo, fluxo, alinhamentos</text>
<g filter="url(#nodeShadow)">
<circle cx="650.0" cy="840.0" r="42" fill="#6B3FB0"/>
<text x="650.0" y="845.0" text-anchor="middle" class="num">05</text>
</g>
<text x="650.0" y="942.0" text-anchor="middle" class="title">Construir</text>
<text x="650.0" y="965.0" text-anchor="middle" class="title">com o time</text>
<text x="650.0" y="985.0" text-anchor="middle" class="sub">Execução e coordenação</text>
<g filter="url(#nodeShadow)">
<circle cx="437.9" cy="752.1" r="42" fill="#4550AC"/>
<text x="437.9" y="757.1" text-anchor="middle" class="num">06</text>
</g>
<text x="355.5" y="822.5" text-anchor="end" class="title">Validar</text>
<text x="355.5" y="845.5" text-anchor="end" class="title">e medir</text>
<text x="355.5" y="865.5" text-anchor="end" class="sub">Resultado, uso, aprendizados</text>
<g filter="url(#nodeShadow)">
<circle cx="350.0" cy="540.0" r="42" fill="#2F72C4"/>
<text x="350.0" y="545.0" text-anchor="middle" class="num">07</text>
</g>
<text x="236.0" y="534.0" text-anchor="end" class="title">Aprender</text>
<text x="236.0" y="557.0" text-anchor="end" class="title">com os dados</text>
<text x="236.0" y="577.0" text-anchor="end" class="sub">Métricas e evidências</text>
<g filter="url(#nodeShadow)">
<circle cx="437.9" cy="327.9" r="42" fill="#1D4E93"/>
<text x="437.9" y="332.9" text-anchor="middle" class="num">08</text>
</g>
<text x="355.5" y="245.5" text-anchor="end" class="title">Realinhar</text>
<text x="355.5" y="268.5" text-anchor="end" class="title">decisões</text>
<text x="355.5" y="288.5" text-anchor="end" class="sub">Prioridade e próximos passos</text>
</svg>
